<svg width="80" height="35" fill="none" xmlns="http://www.w3.org/2000/svg"><path fill-rule="evenodd" clip-rule="evenodd" d="M78.788 18.919c0 1.741-2.713 3.153-6.06 3.153H6.06C2.713 22.072 0 20.66 0 18.92c0-1.742 2.713-3.153 6.06-3.153h66.667c3.347 0 6.06 1.411 6.06 3.153Zm-63.636 6.306H6.06c0 5.225 8.14 9.46 18.181 9.46h30.303c10.042 0 18.182-4.235 18.182-9.46H15.151Zm-3.03-12.612H6.06V6.306C6.06 2.823 11.487 0 18.18 0h42.425c6.695 0 12.121 2.823 12.121 6.306v6.307H12.121Zm48.484-4.73c0 .87 1.357 1.576 3.03 1.576 1.674 0 3.03-.706 3.03-1.576 0-.87-1.356-1.577-3.03-1.577-1.673 0-3.03.706-3.03 1.577ZM48.485 4.73c0 .87 1.357 1.576 3.03 1.576 1.673 0 3.03-.706 3.03-1.576 0-.87-1.357-1.577-3.03-1.577-1.673 0-3.03.706-3.03 1.577ZM36.364 7.883c0 .87 1.357 1.576 3.03 1.576 1.673 0 3.03-.706 3.03-1.576 0-.87-1.357-1.577-3.03-1.577-1.673 0-3.03.706-3.03 1.577ZM24.242 4.73c0 .87 1.357 1.576 3.03 1.576 1.674 0 3.031-.706 3.031-1.576 0-.87-1.357-1.577-3.03-1.577-1.674 0-3.03.706-3.03 1.577Zm-12.12 3.153c0 .87 1.356 1.576 3.03 1.576 1.673 0 3.03-.706 3.03-1.576 0-.87-1.357-1.577-3.03-1.577-1.674 0-3.03.706-3.03 1.577Z" fill="#FD0B7D"/></svg>