<svg aria-hidden="true" style="position:absolute;width:0;height:0;overflow:hidden" xmlns="http://www.w3.org/2000/svg"><defs><symbol id="icon-benefits-img-1" viewBox="0 0 73 32"><path fill="#fd0b7d" style="fill:var(--color1, #fd0b7d)" d="M72.035 17.297c0 1.592-2.48 2.883-5.541 2.883H5.54c-3.06 0-5.541-1.291-5.541-2.882 0-1.593 2.48-2.883 5.541-2.883h60.953c3.06 0 5.541 1.29 5.541 2.883zm-58.182 5.766H5.54c0 4.777 7.442 8.649 16.623 8.649h27.706c9.181 0 16.624-3.872 16.624-8.649h-52.64zm-2.77-11.531H5.541V5.766C5.541 2.582 10.503 0 16.622 0h38.789c6.121 0 11.082 2.581 11.082 5.766v5.766h-55.41zm44.328-4.325c0 .795 1.241 1.441 2.77 1.441s2.77-.646 2.77-1.441-1.24-1.442-2.77-1.442-2.77.646-2.77 1.442zM44.329 4.325c0 .795 1.241 1.441 2.77 1.441s2.77-.646 2.77-1.441-1.241-1.442-2.77-1.442-2.77.646-2.77 1.442zM33.247 7.207c0 .795 1.241 1.441 2.77 1.441s2.77-.646 2.77-1.441-1.241-1.442-2.77-1.442-2.77.646-2.77 1.442zM22.164 4.325c0 .795 1.241 1.441 2.77 1.441s2.771-.646 2.771-1.441-1.241-1.442-2.77-1.442c-1.53 0-2.77.646-2.77 1.442zm-10.971 2.77-.646 2.77H9.106l-.795-1.241-1.442-2.77-1.442-1.53v-2.77"/></symbol><symbol id="icon-benefits-img-2" viewBox="0 0 68 32"><path fill="#fd0b7d" style="fill:var(--color1, #fd0b7d)" d="m18.581 17.658 9.818-4.894L4.059.629c-5.413 2.697-5.413 7.083 0 9.782l14.521 7.248zm23.543-3.139c5.291 1.236 12.769.363 18.286-2.387 6.645-3.313 7.911-8.044 2.828-10.579C58.137-.98 48.63-.349 42.002 2.964c-5.517 2.75-7.252 6.478-4.788 9.116-7.721 3.84-33.883 16.883-33.883 16.883l4.91 2.448L32.112 19.51l23.873 11.901 4.909-2.448-23.872-11.902 5.101-2.544z"/></symbol><symbol id="icon-benefits-img-3" viewBox="0 0 37 32"><path fill="#fd0b7d" style="fill:var(--color1, #fd0b7d)" d="M0 32V0h9.545v32H0zm13.126 0V5.925h9.546V32h-9.545zm13.125 0V10.667h9.546V32h-9.545z"/></symbol></defs></svg>