<svg width="58" height="54" fill="none" xmlns="http://www.w3.org/2000/svg"><g clip-path="url(#a)"><path fill-rule="evenodd" clip-rule="evenodd" d="M58.075 10.004c-8.599 4.22-12.899 9.176-12.899 14.871 3.666.422 6.697 1.916 9.093 4.483 2.397 2.566 3.595 5.537 3.595 8.912 0 3.586-1.163 6.61-3.489 9.07-2.326 2.461-5.251 3.692-8.776 3.692-3.947 0-7.365-1.6-10.255-4.8-2.89-3.198-4.335-7.083-4.335-11.653 0-13.711 7.683-24.434 23.049-32.168l4.017 7.593zm-30.963 0c-8.67 4.22-13.005 9.176-13.005 14.871 3.736.422 6.802 1.916 9.199 4.483 2.396 2.566 3.595 5.537 3.595 8.912 0 3.586-1.181 6.61-3.542 9.07-2.362 2.461-5.305 3.692-8.829 3.692-3.947 0-7.348-1.6-10.203-4.8C1.473 43.035.045 39.15.045 34.58c0-13.711 7.648-24.434 22.943-32.168l4.124 7.593z" fill="#D6D6D6"/></g><defs><clipPath id="a"><path fill="#fff" d="M0 0h58v54H0z"/></clipPath></defs></svg>